<svg width="850" height="850" viewBox="0 0 850 850" fill="none" xmlns="http://www.w3.org/2000/svg">
<path fill-rule="evenodd" clip-rule="evenodd" d="M156.689 300C165.334 314.945 181.493 325 200 325C227.614 325 250 302.614 250 275C250 247.386 227.614 225 200 225C181.493 225 165.334 235.055 156.689 250H125L125 300H156.689ZM393.311 250C384.666 235.055 368.507 225 350 225C322.386 225 300 247.386 300 275C300 302.614 322.386 325 350 325C368.507 325 384.666 314.945 393.311 300H425V250H393.311ZM300 93.3109C314.945 84.6656 325 68.507 325 50C325 22.3858 302.614 0 275 0C247.386 0 225 22.3858 225 50C225 68.507 235.055 84.6656 250 93.3109V125H175C147.386 125 125 147.386 125 175V425H250V456.689C235.055 465.334 225 481.493 225 500C225 527.614 247.386 550 275 550C302.614 550 325 527.614 325 500C325 481.493 314.945 465.334 300 456.689V425H425V125H300V93.3109Z" fill="#1E40AF"/>
<path fill-rule="evenodd" clip-rule="evenodd" d="M550 156.689C535.055 165.334 525 181.493 525 200C525 227.614 547.386 250 575 250C602.614 250 625 227.614 625 200C625 181.493 614.945 165.334 600 156.689L600 125L550 125L550 156.689ZM600 393.311C614.945 384.666 625 368.507 625 350C625 322.386 602.614 300 575 300C547.386 300 525 322.386 525 350C525 368.507 535.055 384.666 550 393.311L550 425L600 425L600 393.311ZM756.689 300C765.334 314.945 781.493 325 800 325C827.614 325 850 302.614 850 275C850 247.386 827.614 225 800 225C781.493 225 765.334 235.055 756.689 250L725 250L725 175C725 147.386 702.614 125 675 125L425 125L425 250L393.311 250C384.666 235.055 368.507 225 350 225C322.386 225 300 247.386 300 275C300 302.614 322.386 325 350 325C368.507 325 384.666 314.945 393.311 300L425 300L425 425L725 425L725 300L756.689 300Z" fill="#E11D48"/>
<path fill-rule="evenodd" clip-rule="evenodd" d="M693.311 550C684.666 535.055 668.507 525 650 525C622.386 525 600 547.386 600 575C600 602.614 622.386 625 650 625C668.507 625 684.666 614.945 693.311 600L725 600L725 550L693.311 550ZM456.689 600C465.334 614.945 481.493 625 500 625C527.614 625 550 602.614 550 575C550 547.386 527.614 525 500 525C481.493 525 465.334 535.055 456.689 550L425 550L425 600L456.689 600ZM550 756.689C535.055 765.334 525 781.493 525 800C525 827.614 547.386 850 575 850C602.614 850 625 827.614 625 800C625 781.493 614.945 765.334 600 756.689L600 725L675 725C702.614 725 725 702.614 725 675L725 425L600 425L600 393.311C614.945 384.666 625 368.507 625 350C625 322.386 602.614 300 575 300C547.386 300 525 322.386 525 350C525 368.507 535.055 384.666 550 393.311L550 425L425 425L425 725L550 725L550 756.689Z" fill="#7DD3FC"/>
<path fill-rule="evenodd" clip-rule="evenodd" d="M300 693.311C314.945 684.666 325 668.507 325 650C325 622.386 302.614 600 275 600C247.386 600 225 622.386 225 650C225 668.507 235.055 684.666 250 693.311L250 725L300 725L300 693.311ZM250 456.689C235.055 465.334 225 481.493 225 500C225 527.614 247.386 550 275 550C302.614 550 325 527.614 325 500C325 481.493 314.945 465.334 300 456.689L300 425L250 425L250 456.689ZM93.3109 550C84.6657 535.055 68.5071 525 50 525C22.3858 525 2.32913e-05 547.386 1.96701e-05 575C1.6049e-05 602.614 22.3858 625 50 625C68.5071 625 84.6657 614.945 93.3109 600L125 600L125 675C125 702.614 147.386 725 175 725L425 725L425 600L456.689 600C465.334 614.945 481.493 625 500 625C527.614 625 550 602.614 550 575C550 547.386 527.614 525 500 525C481.493 525 465.334 535.055 456.689 550L425 550L425 425L125 425L125 550L93.3109 550Z" fill="#FDE047"/>
<path fill-rule="evenodd" clip-rule="evenodd" d="M376.03 299.004C403.126 266.999 447.056 266.999 474.152 299.004C501.247 331.01 501.247 382.902 474.152 414.908L447.712 446.139L529.497 542.745C535.743 550.124 535.743 562.087 529.497 569.466C523.25 576.845 513.122 576.845 506.875 569.466L425.091 472.86L343.306 569.466C337.06 576.845 326.932 576.845 320.685 569.466C314.438 562.087 314.438 550.124 320.685 542.745L402.47 446.139L376.03 414.908C348.935 382.902 348.935 331.01 376.03 299.004ZM425.091 419.418L451.53 388.187C466.132 370.939 466.132 342.974 451.53 325.725C436.928 308.477 413.254 308.477 398.652 325.725C384.05 342.974 384.05 370.939 398.652 388.187L425.091 419.418Z" fill="url(#paint0_linear_8_78)"/>
<path fill-rule="evenodd" clip-rule="evenodd" d="M375.744 299.004C402.71 266.999 446.431 266.999 473.398 299.004C500.364 331.01 500.364 382.902 473.398 414.908L435.837 459.488C435.834 459.492 435.831 459.496 435.828 459.499C435.825 459.503 435.821 459.507 435.818 459.51L343.176 569.466C336.959 576.845 326.88 576.845 320.663 569.466C314.446 562.087 314.446 550.124 320.663 542.745L402.057 446.139L375.744 414.908C348.778 382.902 348.778 331.01 375.744 299.004ZM424.571 419.418L450.884 388.187C465.417 370.939 465.417 342.974 450.884 325.725C436.352 308.477 412.79 308.477 398.258 325.725C383.725 342.974 383.725 370.939 398.258 388.187L424.571 419.418Z" fill="white"/>
<defs>
<linearGradient id="paint0_linear_8_78" x1="436.288" y1="458.987" x2="532.075" y2="540.078" gradientUnits="userSpaceOnUse">
<stop stop-color="#EEEEEE"/>
<stop offset="0.305" stop-color="white"/>
</linearGradient>
</defs>
</svg>
